<svg viewBox="0 0 96 96" xmlns="http://www.w3.org/2000/svg" fill="none">
  <defs>
    <linearGradient id="medusa-mark-stroke" x1="18" y1="12" x2="78" y2="84" gradientUnits="userSpaceOnUse">
      <stop stop-color="#8F221F"/>
      <stop offset="0.52" stop-color="#C37A52"/>
      <stop offset="1" stop-color="#6B1821"/>
    </linearGradient>
    <linearGradient id="medusa-mark-fill" x1="31" y1="34" x2="66" y2="69" gradientUnits="userSpaceOnUse">
      <stop stop-color="#F7E3D4"/>
      <stop offset="1" stop-color="#E9AE84"/>
    </linearGradient>
  </defs>
  <path d="M48 14c-12.7 0-22 9.7-22 22.4v27.2C26 74.3 34.7 83 45.4 83h5.2C61.3 83 70 74.3 70 63.6V36.4C70 23.7 60.7 14 48 14Z" stroke="url(#medusa-mark-stroke)" stroke-width="4" stroke-linecap="round" stroke-linejoin="round"/>
  <path d="M48 23v6" stroke="url(#medusa-mark-stroke)" stroke-width="4" stroke-linecap="round"/>
  <path d="M40.5 24.5c2.2-1.8 4.7-2.7 7.5-2.7s5.3.9 7.5 2.7" stroke="url(#medusa-mark-stroke)" stroke-width="4" stroke-linecap="round"/>
  <path d="M30 36h36" stroke="url(#medusa-mark-stroke)" stroke-width="4" stroke-linecap="round"/>
  <path d="M33 50.5c4.7-6.8 9.7-10.2 15-10.2 5.3 0 10.3 3.4 15 10.2-4.7 6.8-9.7 10.2-15 10.2-5.3 0-10.3-3.4-15-10.2Z" fill="url(#medusa-mark-fill)" stroke="url(#medusa-mark-stroke)" stroke-width="4" stroke-linejoin="round"/>
  <path d="M48 45.5a5 5 0 1 0 0 10 5 5 0 0 0 0-10Z" fill="#FFF7F1" stroke="url(#medusa-mark-stroke)" stroke-width="3.5"/>
  <path d="M34 69h28" stroke="url(#medusa-mark-stroke)" stroke-width="4" stroke-linecap="round"/>
  <path d="M40 78h16" stroke="url(#medusa-mark-stroke)" stroke-width="4" stroke-linecap="round"/>
</svg>
